<?xml version="1.0" encoding="UTF-8"?>
<!DOCTYPE svg PUBLIC "-//W3C//DTD SVG 1.1//EN" "http://www.w3.org/Graphics/SVG/1.1/DTD/svg11.dtd">
<!-- Creator: CorelDRAW 2020 (64-Bit) -->
<svg xmlns="http://www.w3.org/2000/svg" xml:space="preserve" width="50.8mm" height="50.8mm" version="1.1" style="shape-rendering:geometricPrecision; text-rendering:geometricPrecision; image-rendering:optimizeQuality; fill-rule:evenodd; clip-rule:evenodd"
viewBox="0 0 5080 5080"
 xmlns:xlink="http://www.w3.org/1999/xlink"
 xmlns:xodm="http://www.corel.com/coreldraw/odm/2003">
 <defs>
  <style type="text/css">
   <![CDATA[
    .fil7 {fill:none}
    .fil0 {fill:white}
    .fil1 {fill:url(#id1)}
    .fil5 {fill:url(#id2)}
    .fil4 {fill:url(#id3)}
    .fil2 {fill:url(#id4)}
    .fil3 {fill:url(#id5)}
    .fil6 {fill:url(#id6)}
   ]]>
  </style>
   <clipPath id="id0">
    <path d="M517.24 0l4045.52 0c284.49,0 517.25,232.76 517.25,517.26l0 4045.5c0,284.49 -232.76,517.24 -517.25,517.24l-4045.52 0c-284.48,0 -517.24,-232.75 -517.24,-517.24l0 -4045.5c0,-284.5 232.76,-517.26 517.24,-517.26z"/>
   </clipPath>
  <linearGradient id="id1" gradientUnits="userSpaceOnUse" x1="978.58" y1="1450.86" x2="5549.87" y2="386.57">
   <stop offset="0" style="stop-opacity:1; stop-color:#336699"/>
   <stop offset="1" style="stop-opacity:1; stop-color:#00CCFF"/>
  </linearGradient>
  <linearGradient id="id2" gradientUnits="userSpaceOnUse" x1="966.19" y1="2205.72" x2="5537.48" y2="3269.99">
   <stop offset="0" style="stop-opacity:1; stop-color:yellow"/>
   <stop offset="1" style="stop-opacity:1; stop-color:#00CCFF"/>
  </linearGradient>
  <linearGradient id="id3" gradientUnits="userSpaceOnUse" xlink:href="#id2" x1="-510.43" y1="2256.77" x2="4060.87" y2="3321.07">
  </linearGradient>
  <linearGradient id="id4" gradientUnits="userSpaceOnUse" xlink:href="#id1" x1="978.59" y1="1450.85" x2="5549.84" y2="386.58">
  </linearGradient>
  <linearGradient id="id5" gradientUnits="userSpaceOnUse" xlink:href="#id1" x1="978.59" y1="1450.87" x2="5549.84" y2="386.58">
  </linearGradient>
  <linearGradient id="id6" gradientUnits="userSpaceOnUse" xlink:href="#id2" x1="2456.92" y1="2256.57" x2="7028.17" y2="3320.86">
  </linearGradient>
 </defs>
 <g id="Capa_x0020_1">
  <metadata id="CorelCorpID_0Corel-Layer"/>
  <path class="fil0" d="M517.24 0l4045.52 0c284.49,0 517.25,232.76 517.25,517.26l0 4045.5c0,284.49 -232.76,517.24 -517.25,517.24l-4045.52 0c-284.48,0 -517.24,-232.75 -517.24,-517.24l0 -4045.5c0,-284.5 232.76,-517.26 517.24,-517.26z"/>
  <g style="clip-path:url(#id0)">
   <g id="_2044359128016">
    <g>
     <g>
      <path id="1" class="fil1" d="M978.57 1450.87c316.23,94.39 840.01,-131.62 1221.58,-153.9 380.44,-22.21 1530.98,125.08 1602.89,500.28 61.41,320.39 -600.8,280.61 -855.09,510.67 -103.99,94.09 -218.48,288.7 -140.44,483.56 178.13,103.35 268.71,-72.76 479.2,-142.51 369.24,-122.36 1023.47,-46.06 1618.36,-394.31 646.57,-378.5 782.4,-946.61 644.8,-1868.08 -111.57,63.38 -257.04,226.03 -427.69,340.16 -151.96,101.63 -336.18,183.82 -546.75,224.08 -957.8,183.19 -1363.54,-423.86 -2687.24,-53.88 -201.31,56.26 -380.96,115.69 -568.86,203.52 -239.06,111.75 -385.78,116.36 -340.76,350.41z"/>
      <path class="fil2" d="M2618.72 1869.39c186.96,0.66 372.59,-213.26 541.45,-311.74 -123.72,-105.27 -688.29,-179.35 -767.06,-164.24 -36.42,7 -568.32,287.68 -441.32,439 234.4,130.03 510.7,-162.01 682.97,-255.95 -44.54,76.58 -14.34,21.45 -60.83,81.09 -20.83,26.72 -37.11,39.27 -55.86,68.43 -50.75,78.91 -42.69,5.96 -35.3,112.38l135.95 31.03z"/>
      <path class="fil3" d="M2250.99 1379.56c-180.61,6.02 -447.31,14.26 -608.08,85.73 -27.5,12.23 -192.17,126.77 -209.31,141.53 -225.74,194.23 2.99,459.08 766.65,-177.55l50.74 -49.71z"/>
     </g>
     <g>
      <path class="fil4" d="M4101.43 3629.13c-316.22,-94.39 -840,131.63 -1221.57,153.91 -380.44,22.21 -1530.98,-125.08 -1602.9,-500.28 -61.41,-320.39 600.81,-280.61 855.1,-510.67 103.99,-94.1 218.48,-288.7 140.43,-483.56 -178.13,-103.35 -268.7,72.75 -479.2,142.51 -369.23,122.36 -1023.46,46.05 -1618.35,394.31 -646.58,378.5 -782.4,946.61 -644.8,1868.08 111.57,-63.38 257.03,-226.03 427.68,-340.16 151.97,-101.63 336.18,-183.82 546.76,-224.09 957.8,-183.18 1363.54,423.87 2687.24,53.89 201.3,-56.27 380.96,-115.69 568.86,-203.52 239.06,-111.75 385.78,-116.36 340.75,-350.42z"/>
      <path class="fil5" d="M2461.28 3210.62c-186.96,-0.66 -372.59,213.26 -541.44,311.74 123.72,105.27 688.28,179.35 767.06,164.23 36.42,-6.99 568.31,-287.67 441.31,-438.99 -234.39,-130.03 -510.7,162.01 -682.96,255.95 44.54,-76.58 14.33,-21.45 60.83,-81.1 20.83,-26.71 37.1,-39.26 55.86,-68.43 50.75,-78.9 42.69,-5.95 35.29,-112.37l-135.95 -31.03z"/>
      <path class="fil6" d="M2829.02 3700.45c180.61,-6.02 447.31,-14.26 608.07,-85.73 27.51,-12.23 192.17,-126.78 209.32,-141.53 225.74,-194.23 -3,-459.08 -766.65,177.55l-50.74 49.71z"/>
     </g>
    </g>
   </g>
  </g>
  <path class="fil7" d="M517.24 0l4045.52 0c284.49,0 517.25,232.76 517.25,517.26l0 4045.5c0,284.49 -232.76,517.24 -517.25,517.24l-4045.52 0c-284.48,0 -517.24,-232.75 -517.24,-517.24l0 -4045.5c0,-284.5 232.76,-517.26 517.24,-517.26z"/>
 </g>
</svg>
